{
  "accessors": [
    {
      "bufferView": 2,
      "componentType": 5126,
      "count": 65532,
      "max": [
        0.99137943983078,
        1.4806010723114014,
        0.4847791790962219
      ],
      "min": [
        -0.9912921786308289,
        -1.4806010723114014,
        -0.0025000046007335186
      ],
      "type": "VEC3"
    },
    {
      "bufferView": 2,
      "byteOffset": 786384,
      "componentType": 5126,
      "count": 65532,
      "type": "VEC3"
    },
    {
      "bufferView": 1,
      "componentType": 5126,
      "count": 65532,
      "type": "VEC2"
    },
    {
      "bufferView": 0,
      "componentType": 5125,
      "count": 98298,
      "type": "SCALAR"
    },
    {
      "bufferView": 2,
      "byteOffset": 1572768,
      "componentType": 5126,
      "count": 65532,
      "max": [
        0.9863477349281311,
        1.3913540840148926,
        0.5005159974098206
      ],
      "min": [
        -0.9862455725669861,
        -1.3914107084274292,
        -0.0002890281903091818
      ],
      "type": "VEC3"
    },
    {
      "bufferView": 2,
      "byteOffset": 2359152,
      "componentType": 5126,
      "count": 65532,
      "type": "VEC3"
    },
    {
      "bufferView": 1,
      "byteOffset": 524256,
      "componentType": 5126,
      "count": 65532,
      "type": "VEC2"
    },
    {
      "bufferView": 0,
      "byteOffset": 393192,
      "componentType": 5125,
      "count": 98298,
      "type": "SCALAR"
    },
    {
      "bufferView": 2,
      "byteOffset": 3145536,
      "componentType": 5126,
      "count": 10248,
      "max": [
        -0.0826893225312233,
        1.3149844408035278,
        0.4968216121196747
      ],
      "min": [
        -0.31261467933654785,
        -1.3774590492248535,
        0.006040879059582949
      ],
      "type": "VEC3"
    },
    {
      "bufferView": 2,
      "byteOffset": 3268512,
      "componentType": 5126,
      "count": 10248,
      "type": "VEC3"
    },
    {
      "bufferView": 1,
      "byteOffset": 1048512,
      "componentType": 5126,
      "count": 10248,
      "type": "VEC2"
    },
    {
      "bufferView": 0,
      "byteOffset": 786384,
      "componentType": 5125,
      "count": 15372,
      "type": "SCALAR"
    },
    {
      "bufferView": 2,
      "byteOffset": 3391488,
      "componentType": 5126,
      "count": 65533,
      "max": [
        0.9964176416397095,
        1.4986836910247803,
        0.007290916983038187
      ],
      "min": [
        -0.9963873028755188,
        -1.4986836910247803,
        -0.4900370240211487
      ],
      "type": "VEC3"
    },
    {
      "bufferView": 2,
      "byteOffset": 4177884,
      "componentType": 5126,
      "count": 65533,
      "type": "VEC3"
    },
    {
      "bufferView": 1,
      "byteOffset": 1130496,
      "componentType": 5126,
      "count": 65533,
      "type": "VEC2"
    },
    {
      "bufferView": 0,
      "byteOffset": 847872,
      "componentType": 5125,
      "count": 98301,
      "type": "SCALAR"
    },
    {
      "bufferView": 2,
      "byteOffset": 4964280,
      "componentType": 5126,
      "count": 65534,
      "max": [
        0.9863438010215759,
        1.391372561454773,
        -0.009626071900129318
      ],
      "min": [
        -0.9862467050552368,
        -1.3913887739181519,
        -0.5084532499313354
      ],
      "type": "VEC3"
    },
    {
      "bufferView": 2,
      "byteOffset": 5750688,
      "componentType": 5126,
      "count": 65534,
      "type": "VEC3"
    },
    {
      "bufferView": 1,
      "byteOffset": 1654760,
      "componentType": 5126,
      "count": 65534,
      "type": "VEC2"
    },
    {
      "bufferView": 0,
      "byteOffset": 1241076,
      "componentType": 5125,
      "count": 98298,
      "type": "SCALAR"
    },
    {
      "bufferView": 2,
      "byteOffset": 6537096,
      "componentType": 5126,
      "count": 22279,
      "max": [
        0.09781675040721893,
        1.3148828744888306,
        -0.015340846963226795
      ],
      "min": [
        -0.3155972957611084,
        -1.3772035837173462,
        -0.5111361742019653
      ],
      "type": "VEC3"
    },
    {
      "bufferView": 2,
      "byteOffset": 6804444,
      "componentType": 5126,
      "count": 22279,
      "type": "VEC3"
    },
    {
      "bufferView": 1,
      "byteOffset": 2179032,
      "componentType": 5126,
      "count": 22279,
      "type": "VEC2"
    },
    {
      "bufferView": 0,
      "byteOffset": 1634268,
      "componentType": 5125,
      "count": 33417,
      "type": "SCALAR"
    }
  ],
  "asset": {
    "generator": "fab-model-conversion",
    "version": "2.0"
  },
  "bufferViews": [
    {
      "buffer": 0,
      "byteLength": 1767936,
      "target": 34963
    },
    {
      "buffer": 0,
      "byteLength": 2357264,
      "byteOffset": 1767936,
      "byteStride": 8,
      "target": 34962
    },
    {
      "buffer": 0,
      "byteLength": 7071792,
      "byteOffset": 4125200,
      "byteStride": 12,
      "target": 34962
    }
  ],
  "buffers": [
    {
      "byteLength": 11196992,
      "uri": "scene.bin"
    }
  ],
  "extensionsUsed": [
    "KHR_materials_specular"
  ],
  "images": [
    {
      "uri": "textures/Back_baseColor.jpeg"
    },
    {
      "uri": "textures/Front_baseColor.jpeg"
    }
  ],
  "materials": [
    {
      "doubleSided": true,
      "name": "Back",
      "pbrMetallicRoughness": {
        "baseColorTexture": {
          "index": 0
        },
        "metallicFactor": 0.0,
        "roughnessFactor": 0.8211145618000169
      }
    },
    {
      "doubleSided": true,
      "extensions": {
        "KHR_materials_specular": {
          "specularColorFactor": [
            1.0,
            1.0,
            1.0
          ],
          "specularFactor": 0.9597537453277372
        }
      },
      "name": "Front",
      "pbrMetallicRoughness": {
        "baseColorTexture": {
          "index": 1
        },
        "roughnessFactor": 0.4184456763180704
      }
    }
  ],
  "meshes": [
    {
      "name": "ChipsBag_Back_0",
      "primitives": [
        {
          "attributes": {
            "NORMAL": 1,
            "POSITION": 0,
            "TEXCOORD_0": 2
          },
          "indices": 3,
          "material": 0,
          "mode": 4
        }
      ]
    },
    {
      "name": "ChipsBag_Back_0",
      "primitives": [
        {
          "attributes": {
            "NORMAL": 5,
            "POSITION": 4,
            "TEXCOORD_0": 6
          },
          "indices": 7,
          "material": 0,
          "mode": 4
        }
      ]
    },
    {
      "name": "ChipsBag_Back_0",
      "primitives": [
        {
          "attributes": {
            "NORMAL": 9,
            "POSITION": 8,
            "TEXCOORD_0": 10
          },
          "indices": 11,
          "material": 0,
          "mode": 4
        }
      ]
    },
    {
      "name": "ChipsBag_Front_0",
      "primitives": [
        {
          "attributes": {
            "NORMAL": 13,
            "POSITION": 12,
            "TEXCOORD_0": 14
          },
          "indices": 15,
          "material": 1,
          "mode": 4
        }
      ]
    },
    {
      "name": "ChipsBag_Front_0",
      "primitives": [
        {
          "attributes": {
            "NORMAL": 17,
            "POSITION": 16,
            "TEXCOORD_0": 18
          },
          "indices": 19,
          "material": 1,
          "mode": 4
        }
      ]
    },
    {
      "name": "ChipsBag_Front_0",
      "primitives": [
        {
          "attributes": {
            "NORMAL": 21,
            "POSITION": 20,
            "TEXCOORD_0": 22
          },
          "indices": 23,
          "material": 1,
          "mode": 4
        }
      ]
    }
  ],
  "nodes": [
    {
      "children": [
        1
      ],
      "matrix": [
        1.0,
        0.0,
        0.0,
        0.0,
        0.0,
        2.220446049250313e-16,
        -1.0,
        0.0,
        0.0,
        1.0,
        2.220446049250313e-16,
        0.0,
        0.0,
        0.0,
        0.0,
        1.0
      ],
      "name": "Sketchfab_model"
    },
    {
      "children": [
        2
      ],
      "matrix": [
        0.009999999776482582,
        0.0,
        0.0,
        0.0,
        0.0,
        0.0,
        0.009999999776482582,
        0.0,
        0.0,
        -0.009999999776482582,
        0.0,
        0.0,
        0.0,
        0.0,
        0.0,
        1.0
      ],
      "name": "ChipsBag.fbx"
    },
    {
      "children": [
        3
      ],
      "name": "RootNode"
    },
    {
      "children": [
        4,
        5,
        6,
        7,
        8,
        9
      ],
      "matrix": [
        100.0,
        0.0,
        0.0,
        0.0,
        0.0,
        99.9999999999999,
        4.371138828673792e-06,
        0.0,
        0.0,
        -4.371138828673792e-06,
        99.9999999999999,
        0.0,
        0.0,
        150.75669860839844,
        6.589785243704682e-06,
        1.0
      ],
      "name": "ChipsBag"
    },
    {
      "mesh": 0,
      "name": "ChipsBag_Back_0"
    },
    {
      "mesh": 1,
      "name": "ChipsBag_Back_0"
    },
    {
      "mesh": 2,
      "name": "ChipsBag_Back_0"
    },
    {
      "mesh": 3,
      "name": "ChipsBag_Front_0"
    },
    {
      "mesh": 4,
      "name": "ChipsBag_Front_0"
    },
    {
      "mesh": 5,
      "name": "ChipsBag_Front_0"
    }
  ],
  "samplers": [
    {
      "magFilter": 9729,
      "minFilter": 9987,
      "wrapS": 10497,
      "wrapT": 10497
    }
  ],
  "scene": 0,
  "scenes": [
    {
      "name": "Sketchfab_Scene",
      "nodes": [
        0
      ]
    }
  ],
  "textures": [
    {
      "sampler": 0,
      "source": 0
    },
    {
      "sampler": 0,
      "source": 1
    }
  ]
}
