<svg width="383" height="120" viewBox="0 0 383 120" fill="none" xmlns="http://www.w3.org/2000/svg">
<g filter="url(#filter0_dii_2939_10193)">
<rect x="3.04688" width="376.812" height="112.977" rx="56.4883" fill="url(#paint0_linear_2939_10193)"/>
<rect x="3.04688" width="376.812" height="112.977" rx="56.4883" fill="url(#paint1_linear_2939_10193)"/>
<rect x="4.07187" y="1.025" width="374.763" height="110.927" rx="55.4633" stroke="url(#paint2_linear_2939_10193)" stroke-width="2.05" style="mix-blend-mode:darken"/>
</g>
<g filter="url(#filter1_d_2939_10193)">
<path d="M123.48 64.7826V60.1087C123.48 59.4221 123.414 58.9732 123.282 58.762C123.176 58.5507 122.859 58.3791 122.331 58.247C122.041 58.1942 121.777 58.1678 121.539 58.1678C121.328 58.1414 121.13 58.115 120.945 58.0886C120.786 58.0622 120.654 58.0226 120.549 57.9698C120.47 57.8905 120.43 57.7585 120.43 57.5737C120.43 57.204 120.654 57.0191 121.103 57.0191C121.367 57.0191 121.83 57.072 122.49 57.1776C123.176 57.2832 124.087 57.336 125.223 57.336C126.49 57.336 127.454 57.2832 128.114 57.1776C128.774 57.072 129.197 57.0191 129.382 57.0191C129.778 57.0191 129.976 57.1908 129.976 57.5341C129.976 57.7189 129.923 57.8509 129.817 57.9302C129.738 58.0094 129.619 58.0622 129.461 58.0886C129.329 58.115 129.157 58.1414 128.946 58.1678C128.761 58.1678 128.55 58.1942 128.312 58.247C127.837 58.3527 127.533 58.5243 127.401 58.762C127.296 58.9732 127.243 59.4221 127.243 60.1087V66.1293C127.243 66.7366 127.032 67.3044 126.609 67.8325C126.213 68.3342 125.658 68.7699 124.945 69.1396C124.232 69.4829 123.401 69.747 122.45 69.9318C121.526 70.143 120.536 70.2487 119.479 70.2487C117.842 70.2487 116.324 69.9318 114.924 69.298C113.551 68.6643 112.363 67.7929 111.359 66.6838C110.382 65.5484 109.617 64.2016 109.062 62.6437C108.508 61.0857 108.23 59.3825 108.23 57.5341C108.23 55.5536 108.534 53.7316 109.141 52.068C109.775 50.378 110.633 48.9256 111.716 47.7109C112.799 46.4962 114.092 45.5456 115.598 44.8591C117.103 44.1725 118.74 43.8292 120.509 43.8292C121.222 43.8292 121.896 43.882 122.529 43.9877C123.163 44.0669 123.731 44.1857 124.232 44.3441C124.761 44.4762 125.196 44.6346 125.54 44.8195C125.909 44.9779 126.16 45.1363 126.292 45.2948C126.609 45.6116 126.767 46.8923 126.767 49.1369C126.767 49.8762 126.596 50.2459 126.253 50.2459C125.962 50.2459 125.751 50.0743 125.619 49.731C125.513 49.3613 125.355 48.9124 125.143 48.3843C124.219 46.0605 122.595 44.8987 120.272 44.8987C119.136 44.8987 118.08 45.2023 117.103 45.8097C116.152 46.3906 115.32 47.2356 114.607 48.3447C113.894 49.4273 113.34 50.7477 112.944 52.3056C112.548 53.8372 112.35 55.5536 112.35 57.4548C112.35 59.2241 112.548 60.8216 112.944 62.2476C113.366 63.6735 113.921 64.9014 114.607 65.9312C115.32 66.9347 116.139 67.7137 117.063 68.2682C118.014 68.8227 119.017 69.1 120.073 69.1C120.839 69.1 121.447 68.9944 121.896 68.7831C122.344 68.5719 122.688 68.2814 122.925 67.9117C123.163 67.5156 123.308 67.0535 123.361 66.5254C123.44 65.9973 123.48 65.4163 123.48 64.7826ZM138.364 57.0984C139.658 57.0984 140.595 56.9531 141.176 56.6627C141.784 56.3722 142.087 55.7912 142.087 54.9198C142.087 54.2597 141.81 53.6523 141.256 53.0978C140.727 52.5433 140.041 52.266 139.196 52.266C138.272 52.266 137.466 52.6225 136.78 53.3355C136.093 54.0484 135.644 54.9462 135.433 56.0289L135.314 56.6627V56.7419C135.314 56.9795 135.473 57.0984 135.789 57.0984H138.364ZM144.226 58.3262H135.473C135.261 58.3262 135.129 58.3659 135.076 58.4451C135.024 58.5243 134.997 58.6959 134.997 58.96V59.9106C134.997 62.3664 135.512 64.3073 136.542 65.7332C137.598 67.1591 138.958 67.8721 140.622 67.8721C141.361 67.8721 141.995 67.7533 142.523 67.5156C143.078 67.278 143.526 67.0139 143.87 66.7234C144.239 66.433 144.517 66.1689 144.702 65.9312C144.913 65.6936 145.058 65.5748 145.137 65.5748C145.349 65.5748 145.454 65.72 145.454 66.0105C145.454 66.3009 145.296 66.6838 144.979 67.1591C144.662 67.6345 144.2 68.1098 143.592 68.5851C143.012 69.034 142.312 69.4301 141.493 69.7734C140.675 70.1166 139.75 70.2883 138.721 70.2883C137.638 70.2883 136.648 70.0638 135.75 69.6149C134.878 69.1924 134.126 68.5719 133.492 67.7533C132.858 66.9347 132.37 65.9445 132.027 64.7826C131.683 63.6207 131.512 62.3136 131.512 60.8612C131.512 59.4089 131.696 58.1018 132.066 56.9399C132.462 55.7516 133.004 54.7482 133.69 53.9296C134.377 53.111 135.182 52.4773 136.106 52.0284C137.057 51.5795 138.087 51.355 139.196 51.355C140.146 51.355 141.018 51.5266 141.81 51.8699C142.602 52.1868 143.276 52.6225 143.83 53.177C144.385 53.7316 144.807 54.3785 145.098 55.1179C145.415 55.8573 145.573 56.6495 145.573 57.4945C145.573 57.8377 145.467 58.0622 145.256 58.1678C145.045 58.2734 144.702 58.3262 144.226 58.3262ZM152.514 49.1369V51.553C152.514 51.8963 152.685 52.068 153.028 52.068H155.999C156.237 52.068 156.382 52.0944 156.435 52.1472C156.488 52.2 156.514 52.3056 156.514 52.4641V53.2562C156.514 53.4675 156.488 53.6127 156.435 53.692C156.382 53.7712 156.237 53.8108 155.999 53.8108H152.989C152.672 53.8108 152.514 53.9824 152.514 54.3257V64.3469C152.514 65.588 152.619 66.499 152.83 67.0799C153.068 67.6345 153.491 67.9117 154.098 67.9117C154.388 67.9117 154.639 67.8589 154.851 67.7533C155.088 67.6477 155.299 67.5288 155.484 67.3968C155.669 67.2384 155.828 67.1063 155.96 67.0007C156.118 66.8951 156.263 66.8423 156.395 66.8423C156.659 66.8423 156.791 67.0271 156.791 67.3968C156.791 67.5816 156.673 67.8325 156.435 68.1494C156.197 68.4662 155.867 68.7831 155.445 69.1C155.049 69.4169 154.573 69.6809 154.019 69.8922C153.491 70.1298 152.923 70.2487 152.316 70.2487C150.203 70.2487 149.147 68.5719 149.147 65.2183V63.5547L149.305 55.0387C149.305 54.669 149.279 54.3785 149.226 54.1673C149.173 53.9296 149.015 53.8108 148.751 53.8108H148.038C147.562 53.8108 147.325 53.6391 147.325 53.2959C147.325 53.1374 147.391 52.9922 147.523 52.8602C147.655 52.7281 147.84 52.5829 148.077 52.4245C148.315 52.266 148.579 52.068 148.87 51.8303C149.186 51.5927 149.53 51.2758 149.899 50.8797C150.533 50.1403 150.995 49.5066 151.286 48.9784C151.603 48.4503 151.88 48.1862 152.117 48.1862C152.302 48.1862 152.408 48.2787 152.434 48.4635C152.487 48.622 152.514 48.8464 152.514 49.1369ZM167.11 44.5422H172.18C172.365 44.5422 172.484 44.5686 172.537 44.6214C172.616 44.6478 172.722 44.7534 172.854 44.9383L183.469 62.1684C183.495 62.1948 183.522 62.208 183.548 62.208C183.654 62.208 183.707 62.0627 183.707 61.7723V50.9193C183.707 50.3648 183.693 49.9291 183.667 49.6122C183.667 49.2689 183.667 49.0312 183.667 48.8992C183.667 48.1862 183.641 47.6185 183.588 47.196C183.561 46.7735 183.469 46.4566 183.31 46.2454C183.178 46.0077 182.954 45.8625 182.637 45.8097C182.347 45.7305 181.924 45.6909 181.37 45.6909C181.158 45.6909 180.987 45.638 180.855 45.5324C180.723 45.4268 180.657 45.2948 180.657 45.1363C180.657 44.7402 181 44.5422 181.686 44.5422C182.056 44.5422 182.452 44.5686 182.875 44.6214C183.324 44.6478 183.839 44.661 184.42 44.661C184.974 44.661 185.449 44.6478 185.845 44.6214C186.242 44.5686 186.585 44.5422 186.875 44.5422C187.456 44.5422 187.747 44.7402 187.747 45.1363C187.747 45.3476 187.694 45.4928 187.588 45.572C187.509 45.6248 187.337 45.6512 187.073 45.6512H186.677C185.991 45.6512 185.568 45.9813 185.41 46.6415C185.251 47.3016 185.172 48.3579 185.172 49.8102V69.5753C185.172 69.8394 185.106 70.0638 184.974 70.2487C184.868 70.4599 184.736 70.5655 184.578 70.5655C184.34 70.5655 184.089 70.3543 183.825 69.9318L170.794 48.7012C170.768 48.6748 170.741 48.6616 170.715 48.6616C170.609 48.6616 170.556 48.8068 170.556 49.0973V64.5053C170.556 65.2447 170.569 65.8652 170.596 66.367C170.622 66.8423 170.688 67.2384 170.794 67.5552C170.926 67.8457 171.111 68.057 171.348 68.189C171.586 68.2946 171.903 68.3474 172.299 68.3474C172.431 68.3474 172.55 68.3474 172.656 68.3474C172.761 68.321 172.88 68.3078 173.012 68.3078C173.382 68.3078 173.567 68.5191 173.567 68.9416C173.567 69.3377 173.223 69.5357 172.537 69.5357C172.167 69.5357 171.758 69.5093 171.309 69.4565C170.86 69.4037 170.358 69.3773 169.804 69.3773C169.302 69.3773 168.84 69.4037 168.417 69.4565C168.021 69.5093 167.638 69.5357 167.269 69.5357C166.635 69.5357 166.318 69.3377 166.318 68.9416C166.318 68.5191 166.569 68.3078 167.071 68.3078H167.427C167.823 68.3078 168.14 68.2418 168.378 68.1098C168.615 67.9513 168.787 67.7137 168.893 67.3968C169.025 67.0535 169.104 66.6178 169.13 66.0897C169.157 65.5352 169.17 64.875 169.17 64.1092V47.6317C169.17 47.0244 169.13 46.6019 169.051 46.3642C168.972 46.1266 168.747 45.9417 168.378 45.8097C167.902 45.6777 167.48 45.6248 167.11 45.6512C166.741 45.6512 166.556 45.4664 166.556 45.0967C166.556 44.727 166.741 44.5422 167.11 44.5422ZM189.572 60.782C189.572 59.3561 189.77 58.0622 190.166 56.9003C190.562 55.7384 191.13 54.7482 191.869 53.9296C192.609 53.111 193.493 52.4773 194.523 52.0284C195.553 51.5795 196.702 51.355 197.969 51.355C199.184 51.355 200.293 51.5927 201.296 52.068C202.3 52.5169 203.145 53.1638 203.831 54.0088C204.544 54.8274 205.086 55.8177 205.455 56.9795C205.851 58.1414 206.049 59.4353 206.049 60.8612C206.049 62.2608 205.851 63.5415 205.455 64.7034C205.059 65.8652 204.491 66.8555 203.752 67.6741C203.039 68.4927 202.154 69.1264 201.098 69.5753C200.042 70.0242 198.854 70.2487 197.533 70.2487C196.345 70.2487 195.262 70.011 194.285 69.5357C193.308 69.0868 192.463 68.453 191.75 67.6345C191.064 66.7895 190.522 65.786 190.126 64.6241C189.757 63.4623 189.572 62.1816 189.572 60.782ZM197.811 52.4641C196.305 52.4641 195.144 53.1374 194.325 54.4841C193.506 55.8309 193.097 57.7453 193.097 60.2275C193.097 63.0266 193.533 65.2183 194.404 66.8027C195.302 68.3606 196.464 69.1396 197.89 69.1396C199.342 69.1396 200.478 68.4662 201.296 67.1195C202.141 65.7464 202.564 63.832 202.564 61.3762C202.564 58.5771 202.115 56.3986 201.217 54.8406C200.346 53.2562 199.21 52.4641 197.811 52.4641ZM212.856 49.1369V51.553C212.856 51.8963 213.028 52.068 213.371 52.068H216.342C216.579 52.068 216.724 52.0944 216.777 52.1472C216.83 52.2 216.857 52.3056 216.857 52.4641V53.2562C216.857 53.4675 216.83 53.6127 216.777 53.692C216.724 53.7712 216.579 53.8108 216.342 53.8108H213.331C213.014 53.8108 212.856 53.9824 212.856 54.3257V64.3469C212.856 65.588 212.962 66.499 213.173 67.0799C213.411 67.6345 213.833 67.9117 214.44 67.9117C214.731 67.9117 214.982 67.8589 215.193 67.7533C215.431 67.6477 215.642 67.5288 215.827 67.3968C216.012 67.2384 216.17 67.1063 216.302 67.0007C216.46 66.8951 216.606 66.8423 216.738 66.8423C217.002 66.8423 217.134 67.0271 217.134 67.3968C217.134 67.5816 217.015 67.8325 216.777 68.1494C216.54 68.4662 216.21 68.7831 215.787 69.1C215.391 69.4169 214.916 69.6809 214.361 69.8922C213.833 70.1298 213.265 70.2487 212.658 70.2487C210.545 70.2487 209.489 68.5719 209.489 65.2183V63.5547L209.648 55.0387C209.648 54.669 209.621 54.3785 209.568 54.1673C209.516 53.9296 209.357 53.8108 209.093 53.8108H208.38C207.905 53.8108 207.667 53.6391 207.667 53.2959C207.667 53.1374 207.733 52.9922 207.865 52.8602C207.997 52.7281 208.182 52.5829 208.42 52.4245C208.657 52.266 208.921 52.068 209.212 51.8303C209.529 51.5927 209.872 51.2758 210.242 50.8797C210.876 50.1403 211.338 49.5066 211.628 48.9784C211.945 48.4503 212.222 48.1862 212.46 48.1862C212.645 48.1862 212.75 48.2787 212.777 48.4635C212.83 48.622 212.856 48.8464 212.856 49.1369ZM221.917 44.463C222.393 44.463 222.802 44.6874 223.145 45.1363C223.488 45.5852 223.66 46.087 223.66 46.6415C223.66 47.196 223.488 47.6977 223.145 48.1466C222.802 48.5955 222.393 48.82 221.917 48.82C221.442 48.82 221.033 48.5955 220.689 48.1466C220.346 47.6977 220.174 47.196 220.174 46.6415C220.174 46.087 220.346 45.5852 220.689 45.1363C221.033 44.6874 221.442 44.463 221.917 44.463ZM223.422 52.068V66.5254C223.422 67.0007 223.462 67.3572 223.541 67.5948C223.647 67.8325 223.818 68.0173 224.056 68.1494C224.267 68.255 224.465 68.321 224.65 68.3474C224.862 68.3738 225.033 68.4134 225.165 68.4662C225.324 68.4927 225.442 68.5455 225.522 68.6247C225.627 68.7039 225.68 68.8359 225.68 69.0208C225.68 69.4433 225.442 69.6545 224.967 69.6545C224.571 69.6545 224.096 69.6017 223.541 69.4961C222.987 69.4169 222.393 69.3773 221.759 69.3773C221.072 69.3773 220.491 69.4169 220.016 69.4961C219.541 69.6017 219.158 69.6545 218.867 69.6545C218.471 69.6545 218.273 69.4301 218.273 68.9812C218.273 68.7963 218.3 68.6643 218.352 68.5851C218.432 68.5059 218.524 68.453 218.63 68.4266C218.762 68.4002 218.894 68.387 219.026 68.387C219.158 68.3606 219.303 68.3078 219.461 68.2286C219.752 68.0702 219.924 67.8853 219.976 67.6741C220.056 67.4364 220.095 67.0535 220.095 66.5254V57.1776C220.095 56.4646 220.003 55.9893 219.818 55.7516C219.66 55.514 219.475 55.3687 219.263 55.3159C219.079 55.2367 218.894 55.1971 218.709 55.1971C218.55 55.1707 218.471 55.0255 218.471 54.7614C218.471 54.4709 218.643 54.2333 218.986 54.0484C219.356 53.8636 219.871 53.5863 220.531 53.2166C220.927 52.979 221.257 52.7413 221.521 52.5037C221.812 52.266 222.049 52.0548 222.234 51.8699C222.419 51.6851 222.564 51.5398 222.67 51.4342C222.802 51.3022 222.921 51.2362 223.026 51.2362C223.29 51.2362 223.422 51.5134 223.422 52.068ZM232.244 49.533V51.553C232.244 51.8963 232.402 52.068 232.719 52.068H235.65C235.888 52.068 236.033 52.1208 236.086 52.2264C236.138 52.332 236.165 52.4905 236.165 52.7017V52.8998C236.165 53.1638 236.138 53.3619 236.086 53.4939C236.059 53.5995 235.914 53.6523 235.65 53.6523H232.679C232.362 53.6523 232.204 53.824 232.204 54.1673V66.4858C232.204 66.9347 232.244 67.278 232.323 67.5156C232.428 67.7269 232.626 67.8985 232.917 68.0305C233.234 68.189 233.511 68.2946 233.749 68.3474C234.013 68.3738 234.237 68.4134 234.422 68.4662C234.607 68.4927 234.739 68.5455 234.818 68.6247C234.924 68.7039 234.977 68.8491 234.977 69.0604C234.977 69.4301 234.686 69.6149 234.105 69.6149C233.577 69.6149 233.009 69.5753 232.402 69.4961C231.795 69.4169 231.161 69.3773 230.501 69.3773C229.841 69.3773 229.233 69.4169 228.679 69.4961C228.124 69.5753 227.622 69.6149 227.174 69.6149C226.672 69.6149 226.421 69.4037 226.421 68.9812C226.421 68.6115 226.566 68.4398 226.857 68.4662C227.147 68.4662 227.53 68.3606 228.005 68.1494C228.375 67.9645 228.613 67.7533 228.718 67.5156C228.824 67.278 228.877 66.9347 228.877 66.4858V54.1673C228.877 53.824 228.705 53.6523 228.362 53.6523H227.649C227.49 53.6523 227.345 53.5995 227.213 53.4939C227.108 53.3619 227.055 53.2298 227.055 53.0978C227.055 52.8602 227.306 52.6093 227.807 52.3452L228.52 51.9887C228.758 51.8567 228.903 51.6323 228.956 51.3154L229.114 49.2953C229.194 48.1598 229.418 47.1432 229.788 46.2454C230.157 45.3212 230.633 44.5554 231.214 43.948C231.795 43.3143 232.442 42.839 233.155 42.5221C233.894 42.1788 234.66 42.0072 235.452 42.0072C236.218 42.0072 236.878 42.1788 237.432 42.5221C238.013 42.8654 238.304 43.2219 238.304 43.5916C238.304 43.7764 238.251 44.0141 238.145 44.3045C238.066 44.5686 237.947 44.8327 237.789 45.0967C237.657 45.3608 237.498 45.5984 237.314 45.8097C237.155 45.9945 236.997 46.087 236.838 46.087C236.574 46.087 236.337 45.9417 236.125 45.6512C235.914 45.3608 235.69 45.0439 235.452 44.7006C235.241 44.3573 235.029 44.0405 234.818 43.75C234.607 43.4595 234.369 43.3143 234.105 43.3143C233.577 43.3143 233.128 43.8292 232.758 44.8591C232.415 45.8889 232.244 47.4469 232.244 49.533ZM240.059 44.463C240.534 44.463 240.943 44.6874 241.287 45.1363C241.63 45.5852 241.801 46.087 241.801 46.6415C241.801 47.196 241.63 47.6977 241.287 48.1466C240.943 48.5955 240.534 48.82 240.059 48.82C239.583 48.82 239.174 48.5955 238.831 48.1466C238.487 47.6977 238.316 47.196 238.316 46.6415C238.316 46.087 238.487 45.5852 238.831 45.1363C239.174 44.6874 239.583 44.463 240.059 44.463ZM241.564 52.068V66.5254C241.564 67.0007 241.603 67.3572 241.683 67.5948C241.788 67.8325 241.96 68.0173 242.198 68.1494C242.409 68.255 242.607 68.321 242.792 68.3474C243.003 68.3738 243.175 68.4134 243.307 68.4662C243.465 68.4927 243.584 68.5455 243.663 68.6247C243.769 68.7039 243.822 68.8359 243.822 69.0208C243.822 69.4433 243.584 69.6545 243.109 69.6545C242.712 69.6545 242.237 69.6017 241.683 69.4961C241.128 69.4169 240.534 69.3773 239.9 69.3773C239.214 69.3773 238.633 69.4169 238.157 69.4961C237.682 69.6017 237.299 69.6545 237.009 69.6545C236.613 69.6545 236.415 69.4301 236.415 68.9812C236.415 68.7963 236.441 68.6643 236.494 68.5851C236.573 68.5059 236.665 68.453 236.771 68.4266C236.903 68.4002 237.035 68.387 237.167 68.387C237.299 68.3606 237.444 68.3078 237.603 68.2286C237.893 68.0702 238.065 67.8853 238.118 67.6741C238.197 67.4364 238.237 67.0535 238.237 66.5254V57.1776C238.237 56.4646 238.144 55.9893 237.959 55.7516C237.801 55.514 237.616 55.3687 237.405 55.3159C237.22 55.2367 237.035 55.1971 236.85 55.1971C236.692 55.1707 236.613 55.0255 236.613 54.7614C236.613 54.4709 236.784 54.2333 237.128 54.0484C237.497 53.8636 238.012 53.5863 238.672 53.2166C239.068 52.979 239.398 52.7413 239.663 52.5037C239.953 52.266 240.191 52.0548 240.376 51.8699C240.56 51.6851 240.706 51.5398 240.811 51.4342C240.943 51.3022 241.062 51.2362 241.168 51.2362C241.432 51.2362 241.564 51.5134 241.564 52.068ZM252.009 57.0984C253.303 57.0984 254.24 56.9531 254.821 56.6627C255.429 56.3722 255.732 55.7912 255.732 54.9198C255.732 54.2597 255.455 53.6523 254.9 53.0978C254.372 52.5433 253.686 52.266 252.841 52.266C251.916 52.266 251.111 52.6225 250.425 53.3355C249.738 54.0484 249.289 54.9462 249.078 56.0289L248.959 56.6627V56.7419C248.959 56.9795 249.117 57.0984 249.434 57.0984H252.009ZM257.871 58.3262H249.117C248.906 58.3262 248.774 58.3659 248.721 58.4451C248.669 58.5243 248.642 58.6959 248.642 58.96V59.9106C248.642 62.3664 249.157 64.3073 250.187 65.7332C251.243 67.1591 252.603 67.8721 254.267 67.8721C255.006 67.8721 255.64 67.7533 256.168 67.5156C256.722 67.278 257.171 67.0139 257.515 66.7234C257.884 66.433 258.162 66.1689 258.346 65.9312C258.558 65.6936 258.703 65.5748 258.782 65.5748C258.993 65.5748 259.099 65.72 259.099 66.0105C259.099 66.3009 258.941 66.6838 258.624 67.1591C258.307 67.6345 257.845 68.1098 257.237 68.5851C256.656 69.034 255.957 69.4301 255.138 69.7734C254.319 70.1166 253.395 70.2883 252.365 70.2883C251.283 70.2883 250.293 70.0638 249.395 69.6149C248.523 69.1924 247.771 68.5719 247.137 67.7533C246.503 66.9347 246.015 65.9445 245.671 64.7826C245.328 63.6207 245.156 62.3136 245.156 60.8612C245.156 59.4089 245.341 58.1018 245.711 56.9399C246.107 55.7516 246.648 54.7482 247.335 53.9296C248.022 53.111 248.827 52.4773 249.751 52.0284C250.702 51.5795 251.732 51.355 252.841 51.355C253.791 51.355 254.663 51.5266 255.455 51.8699C256.247 52.1868 256.92 52.6225 257.475 53.177C258.03 53.7316 258.452 54.3785 258.743 55.1179C259.059 55.8573 259.218 56.6495 259.218 57.4945C259.218 57.8377 259.112 58.0622 258.901 58.1678C258.69 58.2734 258.346 58.3262 257.871 58.3262ZM276.18 45.4532V65.9312C276.18 66.9875 276.364 67.5156 276.734 67.5156C276.998 67.5156 277.223 67.3968 277.408 67.1591C277.619 66.8951 277.79 66.763 277.922 66.763C277.975 66.763 278.041 66.8291 278.12 66.9611C278.2 67.0667 278.239 67.2252 278.239 67.4364C278.239 67.8853 278.147 68.1758 277.962 68.3078C277.777 68.4134 277.54 68.5191 277.249 68.6247C276.272 68.968 275.493 69.3112 274.912 69.6545C274.358 69.9978 273.975 70.1695 273.763 70.1695C273.631 70.1695 273.513 70.077 273.407 69.8922C273.328 69.7338 273.262 69.5489 273.209 69.3377C273.156 69.1 273.103 68.902 273.05 68.7435C272.998 68.5587 272.932 68.4662 272.852 68.4662C272.8 68.4662 272.668 68.5587 272.456 68.7435C272.245 68.9284 271.955 69.1396 271.585 69.3773C271.242 69.5885 270.819 69.7866 270.317 69.9714C269.816 70.1563 269.235 70.2487 268.575 70.2487C267.571 70.2487 266.634 70.0242 265.762 69.5753C264.891 69.1528 264.112 68.5455 263.425 67.7533C262.765 66.9611 262.237 66.0105 261.841 64.9014C261.471 63.7659 261.286 62.4984 261.286 61.0989C261.286 59.673 261.498 58.3659 261.92 57.1776C262.369 55.9629 262.95 54.933 263.663 54.088C264.402 53.2166 265.261 52.5433 266.238 52.068C267.215 51.5927 268.258 51.355 269.367 51.355C269.895 51.355 270.397 51.4078 270.872 51.5134C271.347 51.5927 271.73 51.6851 272.021 51.7907L272.536 51.9887H272.615C272.773 51.9887 272.852 51.7907 272.852 51.3946V46.1662C272.852 45.8229 272.76 45.572 272.575 45.4136C272.39 45.2552 272.192 45.1363 271.981 45.0571C271.77 44.9515 271.572 44.8591 271.387 44.7798C271.202 44.7006 271.11 44.5818 271.11 44.4234C271.11 44.1329 271.281 43.948 271.625 43.8688C271.994 43.7632 272.43 43.618 272.932 43.4331C273.856 43.0898 274.529 42.773 274.952 42.4825C275.401 42.1656 275.691 42.0072 275.823 42.0072C276.034 42.0072 276.166 42.0732 276.219 42.2052C276.272 42.3373 276.298 42.5221 276.298 42.7598C276.298 43.1295 276.272 43.5387 276.219 43.9877C276.193 44.4366 276.18 44.9251 276.18 45.4532ZM272.852 58.4451C272.852 57.5209 272.826 56.7023 272.773 55.9893C272.747 55.2499 272.628 54.6294 272.417 54.1277C272.232 53.5995 271.941 53.2034 271.545 52.9394C271.149 52.6489 270.595 52.5037 269.882 52.5037C269.195 52.5037 268.548 52.7017 267.941 53.0978C267.36 53.4939 266.832 54.0616 266.356 54.801C265.908 55.514 265.551 56.3986 265.287 57.4548C265.023 58.5111 264.891 59.6862 264.891 60.9801C264.891 63.3302 265.393 65.1655 266.396 66.4858C267.4 67.7797 268.773 68.4266 270.515 68.4266C271.07 68.4266 271.506 68.3606 271.823 68.2286C272.139 68.0702 272.377 67.8457 272.536 67.5552C272.694 67.2648 272.786 66.9215 272.813 66.5254C272.839 66.1293 272.852 65.6672 272.852 65.1391V58.4451Z" fill="black"/>
</g>
<defs>
<filter id="filter0_dii_2939_10193" x="0" y="-12.1875" width="382.906" height="131.258" filterUnits="userSpaceOnUse" color-interpolation-filters="sRGB">
<feFlood flood-opacity="0" result="BackgroundImageFix"/>
<feColorMatrix in="SourceAlpha" type="matrix" values="0 0 0 0 0 0 0 0 0 0 0 0 0 0 0 0 0 0 127 0" result="hardAlpha"/>
<feOffset dy="3.04688"/>
<feGaussianBlur stdDeviation="1.52344"/>
<feComposite in2="hardAlpha" operator="out"/>
<feColorMatrix type="matrix" values="0 0 0 0 0 0 0 0 0 0 0 0 0 0 0 0 0 0 0.24 0"/>
<feBlend mode="normal" in2="BackgroundImageFix" result="effect1_dropShadow_2939_10193"/>
<feBlend mode="normal" in="SourceGraphic" in2="effect1_dropShadow_2939_10193" result="shape"/>
<feColorMatrix in="SourceAlpha" type="matrix" values="0 0 0 0 0 0 0 0 0 0 0 0 0 0 0 0 0 0 127 0" result="hardAlpha"/>
<feMorphology radius="12.1875" operator="erode" in="SourceAlpha" result="effect2_innerShadow_2939_10193"/>
<feOffset dy="-24.375"/>
<feComposite in2="hardAlpha" operator="arithmetic" k2="-1" k3="1"/>
<feColorMatrix type="matrix" values="0 0 0 0 0.703744 0 0 0 0 0.703744 0 0 0 0 0.703744 0 0 0 1 0"/>
<feBlend mode="color-burn" in2="shape" result="effect2_innerShadow_2939_10193"/>
<feColorMatrix in="SourceAlpha" type="matrix" values="0 0 0 0 0 0 0 0 0 0 0 0 0 0 0 0 0 0 127 0" result="hardAlpha"/>
<feMorphology radius="36.5625" operator="dilate" in="SourceAlpha" result="effect3_innerShadow_2939_10193"/>
<feOffset dy="-45.7031"/>
<feGaussianBlur stdDeviation="3.04688"/>
<feComposite in2="hardAlpha" operator="arithmetic" k2="-1" k3="1"/>
<feColorMatrix type="matrix" values="0 0 0 0 1 0 0 0 0 1 0 0 0 0 1 0 0 0 0.25 0"/>
<feBlend mode="screen" in2="effect2_innerShadow_2939_10193" result="effect3_innerShadow_2939_10193"/>
</filter>
<filter id="filter1_d_2939_10193" x="108.227" y="42.0078" width="170.016" height="31.6055" filterUnits="userSpaceOnUse" color-interpolation-filters="sRGB">
<feFlood flood-opacity="0" result="BackgroundImageFix"/>
<feColorMatrix in="SourceAlpha" type="matrix" values="0 0 0 0 0 0 0 0 0 0 0 0 0 0 0 0 0 0 127 0" result="hardAlpha"/>
<feOffset dy="3.04688"/>
<feComposite in2="hardAlpha" operator="out"/>
<feColorMatrix type="matrix" values="0 0 0 0 1 0 0 0 0 1 0 0 0 0 1 0 0 0 0.16 0"/>
<feBlend mode="normal" in2="BackgroundImageFix" result="effect1_dropShadow_2939_10193"/>
<feBlend mode="normal" in="SourceGraphic" in2="effect1_dropShadow_2939_10193" result="shape"/>
</filter>
<linearGradient id="paint0_linear_2939_10193" x1="191.453" y1="0" x2="191.453" y2="112.977" gradientUnits="userSpaceOnUse">
<stop stop-color="#D6E6FF"/>
<stop offset="0.42" stop-color="#A6C9FF"/>
<stop offset="1" stop-color="#D2F1F7"/>
</linearGradient>
<linearGradient id="paint1_linear_2939_10193" x1="191.453" y1="0" x2="191.453" y2="112.977" gradientUnits="userSpaceOnUse">
<stop stop-color="white"/>
<stop offset="0.42" stop-color="#E7E7E7"/>
<stop offset="1" stop-color="#FBFBFB"/>
</linearGradient>
<linearGradient id="paint2_linear_2939_10193" x1="191.453" y1="0" x2="191.453" y2="112.977" gradientUnits="userSpaceOnUse">
<stop stop-color="#626262"/>
<stop offset="1" stop-color="#626262"/>
</linearGradient>
</defs>
</svg>
