<svg width="383" height="120" viewBox="0 0 383 120" fill="none" xmlns="http://www.w3.org/2000/svg">
<g filter="url(#filter0_dii_2939_10197)">
<rect x="3.04688" width="376.812" height="112.977" rx="56.4883" fill="url(#paint0_linear_2939_10197)"/>
<rect x="4.07187" y="1.025" width="374.763" height="110.927" rx="55.4633" stroke="url(#paint1_linear_2939_10197)" stroke-width="2.05" style="mix-blend-mode:darken"/>
</g>
<g filter="url(#filter1_d_2939_10197)">
<path d="M123.042 64.7826V60.1087C123.042 59.4221 122.976 58.9732 122.844 58.762C122.739 58.5507 122.422 58.3791 121.894 58.247C121.603 58.1942 121.339 58.1678 121.102 58.1678C120.89 58.1414 120.692 58.115 120.507 58.0886C120.349 58.0622 120.217 58.0226 120.111 57.9698C120.032 57.8905 119.992 57.7585 119.992 57.5737C119.992 57.204 120.217 57.0191 120.666 57.0191C120.93 57.0191 121.392 57.072 122.052 57.1776C122.739 57.2832 123.65 57.336 124.785 57.336C126.053 57.336 127.017 57.2832 127.677 57.1776C128.337 57.072 128.759 57.0191 128.944 57.0191C129.34 57.0191 129.538 57.1908 129.538 57.5341C129.538 57.7189 129.486 57.8509 129.38 57.9302C129.301 58.0094 129.182 58.0622 129.023 58.0886C128.891 58.115 128.72 58.1414 128.508 58.1678C128.324 58.1678 128.112 58.1942 127.875 58.247C127.399 58.3527 127.096 58.5243 126.964 58.762C126.858 58.9732 126.805 59.4221 126.805 60.1087V66.1293C126.805 66.7366 126.594 67.3044 126.172 67.8325C125.775 68.3342 125.221 68.7699 124.508 69.1396C123.795 69.4829 122.963 69.747 122.013 69.9318C121.088 70.143 120.098 70.2487 119.042 70.2487C117.405 70.2487 115.886 69.9318 114.487 69.298C113.114 68.6643 111.925 67.7929 110.922 66.6838C109.945 65.5484 109.179 64.2016 108.625 62.6437C108.07 61.0857 107.793 59.3825 107.793 57.5341C107.793 55.5536 108.096 53.7316 108.704 52.068C109.338 50.378 110.196 48.9256 111.278 47.7109C112.361 46.4962 113.655 45.5456 115.16 44.8591C116.665 44.1725 118.302 43.8292 120.072 43.8292C120.785 43.8292 121.458 43.882 122.092 43.9877C122.726 44.0669 123.293 44.1857 123.795 44.3441C124.323 44.4762 124.759 44.6346 125.102 44.8195C125.472 44.9779 125.723 45.1363 125.855 45.2948C126.172 45.6116 126.33 46.8923 126.33 49.1369C126.33 49.8762 126.158 50.2459 125.815 50.2459C125.525 50.2459 125.313 50.0743 125.181 49.731C125.076 49.3613 124.917 48.9124 124.706 48.3843C123.782 46.0605 122.158 44.8987 119.834 44.8987C118.699 44.8987 117.642 45.2023 116.665 45.8097C115.715 46.3906 114.883 47.2356 114.17 48.3447C113.457 49.4273 112.902 50.7477 112.506 52.3056C112.11 53.8372 111.912 55.5536 111.912 57.4548C111.912 59.2241 112.11 60.8216 112.506 62.2476C112.929 63.6735 113.483 64.9014 114.17 65.9312C114.883 66.9347 115.701 67.7137 116.626 68.2682C117.576 68.8227 118.58 69.1 119.636 69.1C120.402 69.1 121.009 68.9944 121.458 68.7831C121.907 68.5719 122.25 68.2814 122.488 67.9117C122.726 67.5156 122.871 67.0535 122.924 66.5254C123.003 65.9973 123.042 65.4163 123.042 64.7826ZM137.927 57.0984C139.22 57.0984 140.158 56.9531 140.739 56.6627C141.346 56.3722 141.65 55.7912 141.65 54.9198C141.65 54.2597 141.373 53.6523 140.818 53.0978C140.29 52.5433 139.603 52.266 138.758 52.266C137.834 52.266 137.029 52.6225 136.342 53.3355C135.656 54.0484 135.207 54.9462 134.995 56.0289L134.877 56.6627V56.7419C134.877 56.9795 135.035 57.0984 135.352 57.0984H137.927ZM143.789 58.3262H135.035C134.824 58.3262 134.692 58.3659 134.639 58.4451C134.586 58.5243 134.56 58.6959 134.56 58.96V59.9106C134.56 62.3664 135.075 64.3073 136.105 65.7332C137.161 67.1591 138.521 67.8721 140.184 67.8721C140.924 67.8721 141.557 67.7533 142.086 67.5156C142.64 67.278 143.089 67.0139 143.432 66.7234C143.802 66.433 144.079 66.1689 144.264 65.9312C144.475 65.6936 144.621 65.5748 144.7 65.5748C144.911 65.5748 145.017 65.72 145.017 66.0105C145.017 66.3009 144.858 66.6838 144.541 67.1591C144.224 67.6345 143.762 68.1098 143.155 68.5851C142.574 69.034 141.874 69.4301 141.056 69.7734C140.237 70.1166 139.313 70.2883 138.283 70.2883C137.2 70.2883 136.21 70.0638 135.312 69.6149C134.441 69.1924 133.688 68.5719 133.055 67.7533C132.421 66.9347 131.932 65.9445 131.589 64.7826C131.246 63.6207 131.074 62.3136 131.074 60.8612C131.074 59.4089 131.259 58.1018 131.629 56.9399C132.025 55.7516 132.566 54.7482 133.253 53.9296C133.939 53.111 134.745 52.4773 135.669 52.0284C136.619 51.5795 137.649 51.355 138.758 51.355C139.709 51.355 140.58 51.5266 141.373 51.8699C142.165 52.1868 142.838 52.6225 143.393 53.177C143.947 53.7316 144.37 54.3785 144.66 55.1179C144.977 55.8573 145.135 56.6495 145.135 57.4945C145.135 57.8377 145.03 58.0622 144.819 58.1678C144.607 58.2734 144.264 58.3262 143.789 58.3262ZM152.076 49.1369V51.553C152.076 51.8963 152.248 52.068 152.591 52.068H155.562C155.799 52.068 155.945 52.0944 155.997 52.1472C156.05 52.2 156.077 52.3056 156.077 52.4641V53.2562C156.077 53.4675 156.05 53.6127 155.997 53.692C155.945 53.7712 155.799 53.8108 155.562 53.8108H152.551C152.235 53.8108 152.076 53.9824 152.076 54.3257V64.3469C152.076 65.588 152.182 66.499 152.393 67.0799C152.631 67.6345 153.053 67.9117 153.66 67.9117C153.951 67.9117 154.202 67.8589 154.413 67.7533C154.651 67.6477 154.862 67.5288 155.047 67.3968C155.232 67.2384 155.39 67.1063 155.522 67.0007C155.681 66.8951 155.826 66.8423 155.958 66.8423C156.222 66.8423 156.354 67.0271 156.354 67.3968C156.354 67.5816 156.235 67.8325 155.997 68.1494C155.76 68.4662 155.43 68.7831 155.007 69.1C154.611 69.4169 154.136 69.6809 153.581 69.8922C153.053 70.1298 152.485 70.2487 151.878 70.2487C149.766 70.2487 148.709 68.5719 148.709 65.2183V63.5547L148.868 55.0387C148.868 54.669 148.841 54.3785 148.788 54.1673C148.736 53.9296 148.577 53.8108 148.313 53.8108H147.6C147.125 53.8108 146.887 53.6391 146.887 53.2959C146.887 53.1374 146.953 52.9922 147.085 52.8602C147.217 52.7281 147.402 52.5829 147.64 52.4245C147.877 52.266 148.142 52.068 148.432 51.8303C148.749 51.5927 149.092 51.2758 149.462 50.8797C150.096 50.1403 150.558 49.5066 150.848 48.9784C151.165 48.4503 151.442 48.1862 151.68 48.1862C151.865 48.1862 151.97 48.2787 151.997 48.4635C152.05 48.622 152.076 48.8464 152.076 49.1369ZM166.673 44.5422H171.743C171.928 44.5422 172.046 44.5686 172.099 44.6214C172.178 44.6478 172.284 44.7534 172.416 44.9383L183.031 62.1684C183.058 62.1948 183.084 62.208 183.111 62.208C183.216 62.208 183.269 62.0627 183.269 61.7723V50.9193C183.269 50.3648 183.256 49.9291 183.229 49.6122C183.229 49.2689 183.229 49.0312 183.229 48.8992C183.229 48.1862 183.203 47.6185 183.15 47.196C183.124 46.7735 183.031 46.4566 182.873 46.2454C182.741 46.0077 182.516 45.8625 182.2 45.8097C181.909 45.7305 181.487 45.6909 180.932 45.6909C180.721 45.6909 180.549 45.638 180.417 45.5324C180.285 45.4268 180.219 45.2948 180.219 45.1363C180.219 44.7402 180.562 44.5422 181.249 44.5422C181.619 44.5422 182.015 44.5686 182.437 44.6214C182.886 44.6478 183.401 44.661 183.982 44.661C184.537 44.661 185.012 44.6478 185.408 44.6214C185.804 44.5686 186.147 44.5422 186.438 44.5422C187.019 44.5422 187.309 44.7402 187.309 45.1363C187.309 45.3476 187.256 45.4928 187.151 45.572C187.072 45.6248 186.9 45.6512 186.636 45.6512H186.24C185.553 45.6512 185.131 45.9813 184.972 46.6415C184.814 47.3016 184.735 48.3579 184.735 49.8102V69.5753C184.735 69.8394 184.669 70.0638 184.537 70.2487C184.431 70.4599 184.299 70.5655 184.14 70.5655C183.903 70.5655 183.652 70.3543 183.388 69.9318L170.356 48.7012C170.33 48.6748 170.304 48.6616 170.277 48.6616C170.172 48.6616 170.119 48.8068 170.119 49.0973V64.5053C170.119 65.2447 170.132 65.8652 170.158 66.367C170.185 66.8423 170.251 67.2384 170.356 67.5552C170.488 67.8457 170.673 68.057 170.911 68.189C171.149 68.2946 171.465 68.3474 171.862 68.3474C171.994 68.3474 172.112 68.3474 172.218 68.3474C172.324 68.321 172.443 68.3078 172.575 68.3078C172.944 68.3078 173.129 68.5191 173.129 68.9416C173.129 69.3377 172.786 69.5357 172.099 69.5357C171.73 69.5357 171.32 69.5093 170.871 69.4565C170.422 69.4037 169.921 69.3773 169.366 69.3773C168.864 69.3773 168.402 69.4037 167.98 69.4565C167.584 69.5093 167.201 69.5357 166.831 69.5357C166.197 69.5357 165.881 69.3377 165.881 68.9416C165.881 68.5191 166.131 68.3078 166.633 68.3078H166.99C167.386 68.3078 167.703 68.2418 167.94 68.1098C168.178 67.9513 168.35 67.7137 168.455 67.3968C168.587 67.0535 168.666 66.6178 168.693 66.0897C168.719 65.5352 168.732 64.875 168.732 64.1092V47.6317C168.732 47.0244 168.693 46.6019 168.614 46.3642C168.534 46.1266 168.31 45.9417 167.94 45.8097C167.465 45.6777 167.042 45.6248 166.673 45.6512C166.303 45.6512 166.118 45.4664 166.118 45.0967C166.118 44.727 166.303 44.5422 166.673 44.5422ZM189.134 60.782C189.134 59.3561 189.332 58.0622 189.728 56.9003C190.125 55.7384 190.692 54.7482 191.432 53.9296C192.171 53.111 193.056 52.4773 194.086 52.0284C195.115 51.5795 196.264 51.355 197.532 51.355C198.746 51.355 199.855 51.5927 200.859 52.068C201.862 52.5169 202.707 53.1638 203.394 54.0088C204.107 54.8274 204.648 55.8177 205.018 56.9795C205.414 58.1414 205.612 59.4353 205.612 60.8612C205.612 62.2608 205.414 63.5415 205.018 64.7034C204.622 65.8652 204.054 66.8555 203.315 67.6741C202.602 68.4927 201.717 69.1264 200.661 69.5753C199.604 70.0242 198.416 70.2487 197.096 70.2487C195.908 70.2487 194.825 70.011 193.848 69.5357C192.871 69.0868 192.026 68.453 191.313 67.6345C190.626 66.7895 190.085 65.786 189.689 64.6241C189.319 63.4623 189.134 62.1816 189.134 60.782ZM197.373 52.4641C195.868 52.4641 194.706 53.1374 193.887 54.4841C193.069 55.8309 192.66 57.7453 192.66 60.2275C192.66 63.0266 193.095 65.2183 193.967 66.8027C194.865 68.3606 196.026 69.1396 197.452 69.1396C198.905 69.1396 200.04 68.4662 200.859 67.1195C201.704 65.7464 202.126 63.832 202.126 61.3762C202.126 58.5771 201.677 56.3986 200.78 54.8406C199.908 53.2562 198.773 52.4641 197.373 52.4641ZM212.418 49.1369V51.553C212.418 51.8963 212.59 52.068 212.933 52.068H215.904C216.142 52.068 216.287 52.0944 216.34 52.1472C216.393 52.2 216.419 52.3056 216.419 52.4641V53.2562C216.419 53.4675 216.393 53.6127 216.34 53.692C216.287 53.7712 216.142 53.8108 215.904 53.8108H212.894C212.577 53.8108 212.418 53.9824 212.418 54.3257V64.3469C212.418 65.588 212.524 66.499 212.735 67.0799C212.973 67.6345 213.396 67.9117 214.003 67.9117C214.293 67.9117 214.544 67.8589 214.755 67.7533C214.993 67.6477 215.204 67.5288 215.389 67.3968C215.574 67.2384 215.732 67.1063 215.864 67.0007C216.023 66.8951 216.168 66.8423 216.3 66.8423C216.564 66.8423 216.696 67.0271 216.696 67.3968C216.696 67.5816 216.577 67.8325 216.34 68.1494C216.102 68.4662 215.772 68.7831 215.35 69.1C214.953 69.4169 214.478 69.6809 213.924 69.8922C213.396 70.1298 212.828 70.2487 212.22 70.2487C210.108 70.2487 209.052 68.5719 209.052 65.2183V63.5547L209.21 55.0387C209.21 54.669 209.184 54.3785 209.131 54.1673C209.078 53.9296 208.92 53.8108 208.656 53.8108H207.943C207.467 53.8108 207.23 53.6391 207.23 53.2959C207.23 53.1374 207.296 52.9922 207.428 52.8602C207.56 52.7281 207.745 52.5829 207.982 52.4245C208.22 52.266 208.484 52.068 208.774 51.8303C209.091 51.5927 209.435 51.2758 209.804 50.8797C210.438 50.1403 210.9 49.5066 211.191 48.9784C211.507 48.4503 211.785 48.1862 212.022 48.1862C212.207 48.1862 212.313 48.2787 212.339 48.4635C212.392 48.622 212.418 48.8464 212.418 49.1369ZM221.48 44.463C221.955 44.463 222.364 44.6874 222.708 45.1363C223.051 45.5852 223.223 46.087 223.223 46.6415C223.223 47.196 223.051 47.6977 222.708 48.1466C222.364 48.5955 221.955 48.82 221.48 48.82C221.004 48.82 220.595 48.5955 220.252 48.1466C219.909 47.6977 219.737 47.196 219.737 46.6415C219.737 46.087 219.909 45.5852 220.252 45.1363C220.595 44.6874 221.004 44.463 221.48 44.463ZM222.985 52.068V66.5254C222.985 67.0007 223.025 67.3572 223.104 67.5948C223.209 67.8325 223.381 68.0173 223.619 68.1494C223.83 68.255 224.028 68.321 224.213 68.3474C224.424 68.3738 224.596 68.4134 224.728 68.4662C224.886 68.4927 225.005 68.5455 225.084 68.6247C225.19 68.7039 225.243 68.8359 225.243 69.0208C225.243 69.4433 225.005 69.6545 224.53 69.6545C224.134 69.6545 223.658 69.6017 223.104 69.4961C222.549 69.4169 221.955 69.3773 221.321 69.3773C220.635 69.3773 220.054 69.4169 219.578 69.4961C219.103 69.6017 218.72 69.6545 218.43 69.6545C218.034 69.6545 217.836 69.4301 217.836 68.9812C217.836 68.7963 217.862 68.6643 217.915 68.5851C217.994 68.5059 218.087 68.453 218.192 68.4266C218.324 68.4002 218.456 68.387 218.588 68.387C218.72 68.3606 218.866 68.3078 219.024 68.2286C219.314 68.0702 219.486 67.8853 219.539 67.6741C219.618 67.4364 219.658 67.0535 219.658 66.5254V57.1776C219.658 56.4646 219.565 55.9893 219.38 55.7516C219.222 55.514 219.037 55.3687 218.826 55.3159C218.641 55.2367 218.456 55.1971 218.271 55.1971C218.113 55.1707 218.034 55.0255 218.034 54.7614C218.034 54.4709 218.205 54.2333 218.549 54.0484C218.918 53.8636 219.433 53.5863 220.093 53.2166C220.49 52.979 220.82 52.7413 221.084 52.5037C221.374 52.266 221.612 52.0548 221.797 51.8699C221.981 51.6851 222.127 51.5398 222.232 51.4342C222.364 51.3022 222.483 51.2362 222.589 51.2362C222.853 51.2362 222.985 51.5134 222.985 52.068ZM231.806 49.533V51.553C231.806 51.8963 231.964 52.068 232.281 52.068H235.212C235.45 52.068 235.595 52.1208 235.648 52.2264C235.701 52.332 235.727 52.4905 235.727 52.7017V52.8998C235.727 53.1638 235.701 53.3619 235.648 53.4939C235.622 53.5995 235.476 53.6523 235.212 53.6523H232.242C231.925 53.6523 231.766 53.824 231.766 54.1673V66.4858C231.766 66.9347 231.806 67.278 231.885 67.5156C231.991 67.7269 232.189 67.8985 232.479 68.0305C232.796 68.189 233.074 68.2946 233.311 68.3474C233.575 68.3738 233.8 68.4134 233.985 68.4662C234.169 68.4927 234.301 68.5455 234.381 68.6247C234.486 68.7039 234.539 68.8491 234.539 69.0604C234.539 69.4301 234.249 69.6149 233.668 69.6149C233.14 69.6149 232.572 69.5753 231.964 69.4961C231.357 69.4169 230.723 69.3773 230.063 69.3773C229.403 69.3773 228.796 69.4169 228.241 69.4961C227.687 69.5753 227.185 69.6149 226.736 69.6149C226.234 69.6149 225.983 69.4037 225.983 68.9812C225.983 68.6115 226.129 68.4398 226.419 68.4662C226.71 68.4662 227.093 68.3606 227.568 68.1494C227.938 67.9645 228.175 67.7533 228.281 67.5156C228.386 67.278 228.439 66.9347 228.439 66.4858V54.1673C228.439 53.824 228.268 53.6523 227.924 53.6523H227.211C227.053 53.6523 226.908 53.5995 226.776 53.4939C226.67 53.3619 226.617 53.2298 226.617 53.0978C226.617 52.8602 226.868 52.6093 227.37 52.3452L228.083 51.9887C228.32 51.8567 228.466 51.6323 228.518 51.3154L228.677 49.2953C228.756 48.1598 228.981 47.1432 229.35 46.2454C229.72 45.3212 230.195 44.5554 230.776 43.948C231.357 43.3143 232.004 42.839 232.717 42.5221C233.456 42.1788 234.222 42.0072 235.014 42.0072C235.78 42.0072 236.44 42.1788 236.995 42.5221C237.576 42.8654 237.866 43.2219 237.866 43.5916C237.866 43.7764 237.813 44.0141 237.708 44.3045C237.629 44.5686 237.51 44.8327 237.351 45.0967C237.219 45.3608 237.061 45.5984 236.876 45.8097C236.718 45.9945 236.559 46.087 236.401 46.087C236.137 46.087 235.899 45.9417 235.688 45.6512C235.476 45.3608 235.252 45.0439 235.014 44.7006C234.803 44.3573 234.592 44.0405 234.381 43.75C234.169 43.4595 233.932 43.3143 233.668 43.3143C233.14 43.3143 232.691 43.8292 232.321 44.8591C231.978 45.8889 231.806 47.4469 231.806 49.533ZM239.621 44.463C240.096 44.463 240.506 44.6874 240.849 45.1363C241.192 45.5852 241.364 46.087 241.364 46.6415C241.364 47.196 241.192 47.6977 240.849 48.1466C240.506 48.5955 240.096 48.82 239.621 48.82C239.146 48.82 238.737 48.5955 238.393 48.1466C238.05 47.6977 237.878 47.196 237.878 46.6415C237.878 46.087 238.05 45.5852 238.393 45.1363C238.737 44.6874 239.146 44.463 239.621 44.463ZM241.126 52.068V66.5254C241.126 67.0007 241.166 67.3572 241.245 67.5948C241.351 67.8325 241.522 68.0173 241.76 68.1494C241.971 68.255 242.169 68.321 242.354 68.3474C242.565 68.3738 242.737 68.4134 242.869 68.4662C243.028 68.4927 243.146 68.5455 243.226 68.6247C243.331 68.7039 243.384 68.8359 243.384 69.0208C243.384 69.4433 243.146 69.6545 242.671 69.6545C242.275 69.6545 241.8 69.6017 241.245 69.4961C240.691 69.4169 240.096 69.3773 239.463 69.3773C238.776 69.3773 238.195 69.4169 237.72 69.4961C237.245 69.6017 236.862 69.6545 236.571 69.6545C236.175 69.6545 235.977 69.4301 235.977 68.9812C235.977 68.7963 236.003 68.6643 236.056 68.5851C236.136 68.5059 236.228 68.453 236.334 68.4266C236.466 68.4002 236.598 68.387 236.73 68.387C236.862 68.3606 237.007 68.3078 237.165 68.2286C237.456 68.0702 237.627 67.8853 237.68 67.6741C237.76 67.4364 237.799 67.0535 237.799 66.5254V57.1776C237.799 56.4646 237.707 55.9893 237.522 55.7516C237.363 55.514 237.179 55.3687 236.967 55.3159C236.782 55.2367 236.598 55.1971 236.413 55.1971C236.254 55.1707 236.175 55.0255 236.175 54.7614C236.175 54.4709 236.347 54.2333 236.69 54.0484C237.06 53.8636 237.575 53.5863 238.235 53.2166C238.631 52.979 238.961 52.7413 239.225 52.5037C239.516 52.266 239.753 52.0548 239.938 51.8699C240.123 51.6851 240.268 51.5398 240.374 51.4342C240.506 51.3022 240.625 51.2362 240.73 51.2362C240.994 51.2362 241.126 51.5134 241.126 52.068ZM251.571 57.0984C252.865 57.0984 253.803 56.9531 254.384 56.6627C254.991 56.3722 255.295 55.7912 255.295 54.9198C255.295 54.2597 255.017 53.6523 254.463 53.0978C253.935 52.5433 253.248 52.266 252.403 52.266C251.479 52.266 250.674 52.6225 249.987 53.3355C249.3 54.0484 248.852 54.9462 248.64 56.0289L248.521 56.6627V56.7419C248.521 56.9795 248.68 57.0984 248.997 57.0984H251.571ZM257.434 58.3262H248.68C248.469 58.3262 248.337 58.3659 248.284 58.4451C248.231 58.5243 248.205 58.6959 248.205 58.96V59.9106C248.205 62.3664 248.72 64.3073 249.749 65.7332C250.806 67.1591 252.166 67.8721 253.829 67.8721C254.569 67.8721 255.202 67.7533 255.73 67.5156C256.285 67.278 256.734 67.0139 257.077 66.7234C257.447 66.433 257.724 66.1689 257.909 65.9312C258.12 65.6936 258.265 65.5748 258.345 65.5748C258.556 65.5748 258.661 65.72 258.661 66.0105C258.661 66.3009 258.503 66.6838 258.186 67.1591C257.869 67.6345 257.407 68.1098 256.8 68.5851C256.219 69.034 255.519 69.4301 254.701 69.7734C253.882 70.1166 252.958 70.2883 251.928 70.2883C250.845 70.2883 249.855 70.0638 248.957 69.6149C248.086 69.1924 247.333 68.5719 246.699 67.7533C246.066 66.9347 245.577 65.9445 245.234 64.7826C244.891 63.6207 244.719 62.3136 244.719 60.8612C244.719 59.4089 244.904 58.1018 245.274 56.9399C245.67 55.7516 246.211 54.7482 246.898 53.9296C247.584 53.111 248.389 52.4773 249.314 52.0284C250.264 51.5795 251.294 51.355 252.403 51.355C253.354 51.355 254.225 51.5266 255.017 51.8699C255.81 52.1868 256.483 52.6225 257.038 53.177C257.592 53.7316 258.015 54.3785 258.305 55.1179C258.622 55.8573 258.78 56.6495 258.78 57.4945C258.78 57.8377 258.675 58.0622 258.463 58.1678C258.252 58.2734 257.909 58.3262 257.434 58.3262ZM275.742 45.4532V65.9312C275.742 66.9875 275.927 67.5156 276.297 67.5156C276.561 67.5156 276.785 67.3968 276.97 67.1591C277.181 66.8951 277.353 66.763 277.485 66.763C277.538 66.763 277.604 66.8291 277.683 66.9611C277.762 67.0667 277.802 67.2252 277.802 67.4364C277.802 67.8853 277.709 68.1758 277.525 68.3078C277.34 68.4134 277.102 68.5191 276.812 68.6247C275.835 68.968 275.056 69.3112 274.475 69.6545C273.92 69.9978 273.537 70.1695 273.326 70.1695C273.194 70.1695 273.075 70.077 272.969 69.8922C272.89 69.7338 272.824 69.5489 272.771 69.3377C272.719 69.1 272.666 68.902 272.613 68.7435C272.56 68.5587 272.494 68.4662 272.415 68.4662C272.362 68.4662 272.23 68.5587 272.019 68.7435C271.808 68.9284 271.517 69.1396 271.147 69.3773C270.804 69.5885 270.382 69.7866 269.88 69.9714C269.378 70.1563 268.797 70.2487 268.137 70.2487C267.134 70.2487 266.196 70.0242 265.325 69.5753C264.453 69.1528 263.674 68.5455 262.988 67.7533C262.328 66.9611 261.8 66.0105 261.404 64.9014C261.034 63.7659 260.849 62.4984 260.849 61.0989C260.849 59.673 261.06 58.3659 261.483 57.1776C261.932 55.9629 262.513 54.933 263.226 54.088C263.965 53.2166 264.823 52.5433 265.8 52.068C266.777 51.5927 267.82 51.355 268.929 51.355C269.457 51.355 269.959 51.4078 270.434 51.5134C270.91 51.5927 271.293 51.6851 271.583 51.7907L272.098 51.9887H272.177C272.336 51.9887 272.415 51.7907 272.415 51.3946V46.1662C272.415 45.8229 272.323 45.572 272.138 45.4136C271.953 45.2552 271.755 45.1363 271.544 45.0571C271.332 44.9515 271.134 44.8591 270.949 44.7798C270.765 44.7006 270.672 44.5818 270.672 44.4234C270.672 44.1329 270.844 43.948 271.187 43.8688C271.557 43.7632 271.992 43.618 272.494 43.4331C273.418 43.0898 274.092 42.773 274.514 42.4825C274.963 42.1656 275.254 42.0072 275.386 42.0072C275.597 42.0072 275.729 42.0732 275.782 42.2052C275.835 42.3373 275.861 42.5221 275.861 42.7598C275.861 43.1295 275.835 43.5387 275.782 43.9877C275.755 44.4366 275.742 44.9251 275.742 45.4532ZM272.415 58.4451C272.415 57.5209 272.389 56.7023 272.336 55.9893C272.309 55.2499 272.19 54.6294 271.979 54.1277C271.794 53.5995 271.504 53.2034 271.108 52.9394C270.712 52.6489 270.157 52.5037 269.444 52.5037C268.758 52.5037 268.111 52.7017 267.503 53.0978C266.922 53.4939 266.394 54.0616 265.919 54.801C265.47 55.514 265.114 56.3986 264.85 57.4548C264.585 58.5111 264.453 59.6862 264.453 60.9801C264.453 63.3302 264.955 65.1655 265.959 66.4858C266.962 67.7797 268.335 68.4266 270.078 68.4266C270.633 68.4266 271.068 68.3606 271.385 68.2286C271.702 68.0702 271.94 67.8457 272.098 67.5552C272.256 67.2648 272.349 66.9215 272.375 66.5254C272.402 66.1293 272.415 65.6672 272.415 65.1391V58.4451Z" fill="black"/>
</g>
<defs>
<filter id="filter0_dii_2939_10197" x="0" y="-12.1875" width="382.906" height="131.258" filterUnits="userSpaceOnUse" color-interpolation-filters="sRGB">
<feFlood flood-opacity="0" result="BackgroundImageFix"/>
<feColorMatrix in="SourceAlpha" type="matrix" values="0 0 0 0 0 0 0 0 0 0 0 0 0 0 0 0 0 0 127 0" result="hardAlpha"/>
<feOffset dy="3.04688"/>
<feGaussianBlur stdDeviation="1.52344"/>
<feComposite in2="hardAlpha" operator="out"/>
<feColorMatrix type="matrix" values="0 0 0 0 0 0 0 0 0 0 0 0 0 0 0 0 0 0 0.24 0"/>
<feBlend mode="normal" in2="BackgroundImageFix" result="effect1_dropShadow_2939_10197"/>
<feBlend mode="normal" in="SourceGraphic" in2="effect1_dropShadow_2939_10197" result="shape"/>
<feColorMatrix in="SourceAlpha" type="matrix" values="0 0 0 0 0 0 0 0 0 0 0 0 0 0 0 0 0 0 127 0" result="hardAlpha"/>
<feMorphology radius="12.1875" operator="erode" in="SourceAlpha" result="effect2_innerShadow_2939_10197"/>
<feOffset dy="-24.375"/>
<feComposite in2="hardAlpha" operator="arithmetic" k2="-1" k3="1"/>
<feColorMatrix type="matrix" values="0 0 0 0 0.703744 0 0 0 0 0.703744 0 0 0 0 0.703744 0 0 0 1 0"/>
<feBlend mode="color-burn" in2="shape" result="effect2_innerShadow_2939_10197"/>
<feColorMatrix in="SourceAlpha" type="matrix" values="0 0 0 0 0 0 0 0 0 0 0 0 0 0 0 0 0 0 127 0" result="hardAlpha"/>
<feMorphology radius="36.5625" operator="dilate" in="SourceAlpha" result="effect3_innerShadow_2939_10197"/>
<feOffset dy="-45.7031"/>
<feGaussianBlur stdDeviation="3.04688"/>
<feComposite in2="hardAlpha" operator="arithmetic" k2="-1" k3="1"/>
<feColorMatrix type="matrix" values="0 0 0 0 1 0 0 0 0 1 0 0 0 0 1 0 0 0 0.25 0"/>
<feBlend mode="screen" in2="effect2_innerShadow_2939_10197" result="effect3_innerShadow_2939_10197"/>
</filter>
<filter id="filter1_d_2939_10197" x="107.789" y="42.0078" width="170.016" height="31.6055" filterUnits="userSpaceOnUse" color-interpolation-filters="sRGB">
<feFlood flood-opacity="0" result="BackgroundImageFix"/>
<feColorMatrix in="SourceAlpha" type="matrix" values="0 0 0 0 0 0 0 0 0 0 0 0 0 0 0 0 0 0 127 0" result="hardAlpha"/>
<feOffset dy="3.04688"/>
<feComposite in2="hardAlpha" operator="out"/>
<feColorMatrix type="matrix" values="0 0 0 0 1 0 0 0 0 1 0 0 0 0 1 0 0 0 0.16 0"/>
<feBlend mode="normal" in2="BackgroundImageFix" result="effect1_dropShadow_2939_10197"/>
<feBlend mode="normal" in="SourceGraphic" in2="effect1_dropShadow_2939_10197" result="shape"/>
</filter>
<linearGradient id="paint0_linear_2939_10197" x1="191.453" y1="0" x2="191.453" y2="112.977" gradientUnits="userSpaceOnUse">
<stop stop-color="#D6E6FF"/>
<stop offset="0.42" stop-color="#9EC5FF"/>
<stop offset="1" stop-color="#D2F1F7"/>
</linearGradient>
<linearGradient id="paint1_linear_2939_10197" x1="191.453" y1="0" x2="191.453" y2="112.977" gradientUnits="userSpaceOnUse">
<stop stop-color="#599CF8"/>
<stop offset="1" stop-color="#256AC8"/>
</linearGradient>
</defs>
</svg>
